<svg xmlns="http://www.w3.org/2000/svg" width="31.999" height="14" viewBox="0 0 31.999 14"><defs><style>.a{fill:#52badb;}</style></defs><g transform="translate(-769 -1362)"><path class="a" d="M34,9.25V5.75A1.749,1.749,0,0,0,32.263,4H3.737A1.741,1.741,0,0,0,2.009,5.75v3.5A1.75,1.75,0,0,1,2,12.75v3.5A1.749,1.749,0,0,0,3.737,18H32.263A1.749,1.749,0,0,0,34,16.25v-3.5a1.75,1.75,0,0,1,0-3.5ZM32.263,7.972a3.507,3.507,0,0,0,0,6.055V16.25H3.737V14.027a3.511,3.511,0,0,0,.009-6.055L3.737,5.75H32.263Z" transform="translate(767 1358)"/><path class="a" d="M-52.113-9.8h1.395V-7.78a3.234,3.234,0,0,1-.98.451,4.031,4.031,0,0,1-1.1.157,2.9,2.9,0,0,1-1.368-.318,2.369,2.369,0,0,1-.949-.888,2.459,2.459,0,0,1-.344-1.294,2.459,2.459,0,0,1,.344-1.294,2.353,2.353,0,0,1,.959-.888,2.991,2.991,0,0,1,1.392-.318,3.183,3.183,0,0,1,1.255.236,2.359,2.359,0,0,1,.922.686l-1.028.908a1.363,1.363,0,0,0-1.068-.526,1.124,1.124,0,0,0-.844.321,1.2,1.2,0,0,0-.313.874,1.212,1.212,0,0,0,.31.867,1.083,1.083,0,0,0,.827.328,1.508,1.508,0,0,0,.585-.116Zm4.58,2.63a2.93,2.93,0,0,1-1.381-.321,2.406,2.406,0,0,1-.959-.891,2.428,2.428,0,0,1-.347-1.288,2.428,2.428,0,0,1,.347-1.288,2.406,2.406,0,0,1,.959-.891,2.93,2.93,0,0,1,1.381-.321,2.93,2.93,0,0,1,1.381.321,2.406,2.406,0,0,1,.959.891,2.428,2.428,0,0,1,.347,1.288,2.428,2.428,0,0,1-.347,1.288,2.406,2.406,0,0,1-.959.891A2.93,2.93,0,0,1-47.533-7.172Zm0-1.3a1.021,1.021,0,0,0,.541-.147,1.05,1.05,0,0,0,.384-.417,1.331,1.331,0,0,0,.143-.632,1.331,1.331,0,0,0-.143-.632,1.05,1.05,0,0,0-.384-.417,1.021,1.021,0,0,0-.541-.147,1.021,1.021,0,0,0-.541.147,1.05,1.05,0,0,0-.384.417,1.331,1.331,0,0,0-.143.632,1.331,1.331,0,0,0,.143.632,1.05,1.05,0,0,0,.384.417A1.021,1.021,0,0,0-47.533-8.477Zm5.77,1.3a2.93,2.93,0,0,1-1.381-.321,2.406,2.406,0,0,1-.959-.891,2.428,2.428,0,0,1-.347-1.288A2.428,2.428,0,0,1-44.1-10.96a2.406,2.406,0,0,1,.959-.891,2.93,2.93,0,0,1,1.381-.321,2.93,2.93,0,0,1,1.381.321,2.406,2.406,0,0,1,.959.891,2.428,2.428,0,0,1,.347,1.288,2.428,2.428,0,0,1-.347,1.288,2.406,2.406,0,0,1-.959.891A2.93,2.93,0,0,1-41.763-7.172Zm0-1.3a1.021,1.021,0,0,0,.541-.147,1.05,1.05,0,0,0,.384-.417,1.331,1.331,0,0,0,.143-.632,1.331,1.331,0,0,0-.143-.632,1.05,1.05,0,0,0-.384-.417,1.021,1.021,0,0,0-.541-.147,1.021,1.021,0,0,0-.541.147,1.05,1.05,0,0,0-.384.417,1.331,1.331,0,0,0-.143.632,1.331,1.331,0,0,0,.143.632,1.05,1.05,0,0,0,.384.417A1.021,1.021,0,0,0-41.763-8.477Zm3.273-3.586h2.348a3.23,3.23,0,0,1,1.405.29,2.2,2.2,0,0,1,.946.83,2.35,2.35,0,0,1,.337,1.27,2.35,2.35,0,0,1-.337,1.27,2.2,2.2,0,0,1-.946.83,3.23,3.23,0,0,1-1.405.29H-38.49Zm2.28,3.525a1.144,1.144,0,0,0,.827-.3,1.105,1.105,0,0,0,.31-.837,1.105,1.105,0,0,0-.31-.837,1.144,1.144,0,0,0-.827-.3h-.674v2.268Z" transform="translate(829.454 1378.671)"/></g></svg>