<svg xmlns="http://www.w3.org/2000/svg" width="32" height="14" viewBox="0 0 32 14"><defs><style>.a{fill:#ce58e7;}</style></defs><g transform="translate(-769 -1362)"><path class="a" d="M-36.363-11.9h1.649v3.61h2.208v1.278h-3.857Zm6.784,5a2.419,2.419,0,0,1-1.754-.608,2.259,2.259,0,0,1-.629-1.7V-11.9h1.649v2.64a1.27,1.27,0,0,0,.192.782.664.664,0,0,0,.555.244.664.664,0,0,0,.555-.244,1.27,1.27,0,0,0,.192-.782V-11.9H-27.2v2.689a2.259,2.259,0,0,1-.629,1.7A2.419,2.419,0,0,1-29.579-6.9Zm6.33-.112-.845-1.306-.824,1.306H-26.8l1.768-2.465-1.7-2.423h1.851l.831,1.229.81-1.229h1.775l-1.7,2.36,1.8,2.528Z" transform="translate(813.863 1378.4)"/><path class="a" d="M34,9.25V5.75A1.747,1.747,0,0,0,32.266,4H3.733A1.739,1.739,0,0,0,2.009,5.75v3.5A1.75,1.75,0,0,1,2,12.75v3.5A1.747,1.747,0,0,0,3.733,18H32.266A1.747,1.747,0,0,0,34,16.25v-3.5a1.75,1.75,0,0,1,0-3.5ZM32.266,7.972a3.511,3.511,0,0,0,0,6.055V16.25H3.733V14.027a3.515,3.515,0,0,0,.009-6.055L3.733,5.75H32.266Z" transform="translate(767 1358)"/></g></svg>