<svg xmlns="http://www.w3.org/2000/svg" width="32" height="14" viewBox="0 0 32 14"><defs><style>.a,.b{fill:#ce58e7;}.b{stroke:rgba(0,0,0,0);stroke-miterlimit:10;}</style></defs><g transform="translate(-769 -1362)"><path class="a" d="M34,9.25V5.75A1.747,1.747,0,0,0,32.266,4H3.733A1.739,1.739,0,0,0,2.009,5.75v3.5A1.75,1.75,0,0,1,2,12.75v3.5A1.747,1.747,0,0,0,3.733,18H32.266A1.747,1.747,0,0,0,34,16.25v-3.5a1.75,1.75,0,0,1,0-3.5ZM32.266,7.972a3.511,3.511,0,0,0,0,6.055V16.25H3.733V14.027a3.515,3.515,0,0,0,.009-6.055L3.733,5.75H32.266Z" transform="translate(767 1358)"/><path class="b" d="M21914.264,7905l-.775-1.337-.76,1.337H21911l1.623-2.519-1.568-2.481h1.705l.766,1.26.742-1.26h1.633l-1.562,2.415L21916,7905Zm-7.035,0v-1.832L21905.5,7900h1.627l.936,1.733.941-1.733h1.5l-1.729,3.185V7905Zm-3.635,0-1.926-2.272V7905H21900v-5h1.4l1.93,2.272V7900H21905v5Zm-8.283-.319a2.45,2.45,0,0,1,0-4.356,3.132,3.132,0,0,1,2.777,0,2.4,2.4,0,0,1,.963.891,2.532,2.532,0,0,1,0,2.574,2.4,2.4,0,0,1-.963.891,3.179,3.179,0,0,1-2.777,0Zm.846-3.229a1.023,1.023,0,0,0-.385.418,1.475,1.475,0,0,0,0,1.265,1.052,1.052,0,0,0,1.469.413,1.048,1.048,0,0,0,.391-.413,1.475,1.475,0,0,0,0-1.265,1.063,1.063,0,0,0-.391-.418,1,1,0,0,0-.539-.143A1.01,1.01,0,0,0,21896.156,7901.45Z" transform="translate(-21120 -6533.498)"/></g></svg>