<svg xmlns="http://www.w3.org/2000/svg" width="40" height="40" viewBox="0 0 40 40"><defs><style>.a{fill:none;}.b{fill:#000067;}</style></defs><path class="a" d="M0,0H40V40H0Z"/><g transform="translate(7.71 3.511)"><path class="b" d="M17.29,2C10.5,2,5,7.161,5,13.542,5,22.2,17.29,34.977,17.29,34.977S29.579,22.2,29.579,13.542C29.579,7.161,24.084,2,17.29,2ZM8.511,13.542A8.527,8.527,0,0,1,17.29,5.3a8.527,8.527,0,0,1,8.778,8.244c0,4.749-5.056,11.855-8.778,16.291C13.638,25.43,8.511,18.241,8.511,13.542Z" transform="translate(-5 -2)"/><circle class="b" cx="4.389" cy="4.389" r="4.389" transform="translate(7.9 7.26)"/></g></svg>